<?xml version="1.0" encoding="UTF-8" standalone="no"?>
<!-- Created with Inkscape (http://www.inkscape.org/) -->

<svg
   version="1.1"
   id="svg5144"
   xml:space="preserve"
   width="1066.6667"
   height="1066.6667"
   viewBox="0 0 1066.6667 1066.6667"
   sodipodi:docname="penguin-silhouette-color-pdv.svg"
   inkscape:version="1.1.2 (b8e25be833, 2022-02-05)"
   xmlns:inkscape="http://www.inkscape.org/namespaces/inkscape"
   xmlns:sodipodi="http://sodipodi.sourceforge.net/DTD/sodipodi-0.dtd"
   xmlns="http://www.w3.org/2000/svg"
   xmlns:svg="http://www.w3.org/2000/svg"><defs
     id="defs5148"><clipPath
       clipPathUnits="userSpaceOnUse"
       id="clipPath5158"><path
         d="M 0,800 H 800 V 0 H 0 Z"
         id="path5156" /></clipPath></defs><sodipodi:namedview
     id="namedview5146"
     pagecolor="#ffffff"
     bordercolor="#666666"
     borderopacity="1.0"
     inkscape:pageshadow="2"
     inkscape:pageopacity="0.0"
     inkscape:pagecheckerboard="0"
     showgrid="false"
     inkscape:zoom="0.77906244"
     inkscape:cx="533.33337"
     inkscape:cy="533.33337"
     inkscape:window-width="1920"
     inkscape:window-height="1018"
     inkscape:window-x="-8"
     inkscape:window-y="-8"
     inkscape:window-maximized="1"
     inkscape:current-layer="g5150" /><g
     id="g5150"
     inkscape:groupmode="layer"
     inkscape:label="penguin-silhouette-color-pdv"
     transform="matrix(1.3333333,0,0,-1.3333333,0,1066.6667)"><g
       id="g5152"><g
         id="g5154"
         clip-path="url(#clipPath5158)"><path
           d="m 590.297,279.059 c 0.498,1.977 1.082,4.262 1.441,5.632 0.35,1.794 0.631,3.596 0.856,5.403 l -8.553,1.742 z"
           style="fill:#14b4ec;fill-opacity:1;fill-rule:nonzero;stroke:none"
           id="path5160" /><path
           d="m 592.594,290.094 c 0.382,3.061 0.597,6.138 0.689,9.226 l -9.242,-7.484 z"
           style="fill:#67d7ef;fill-opacity:1;fill-rule:nonzero;stroke:none"
           id="path5162" /><path
           d="m 588.428,362.791 c -0.095,0.707 -0.182,1.353 -0.252,1.874 -2.151,3.528 -2.856,7.324 -2.116,11.356 -0.203,1.413 -0.673,4.235 -0.909,5.647 -0.603,1.074 -1.78,3.224 -2.383,4.3 -0.038,1.413 -0.069,4.201 -0.102,5.613 l -0.738,2.788 c -0.641,1.947 -1.951,5.812 -2.623,7.763 l -0.942,2.787 c -0.738,1.883 -2.25,5.679 -2.988,7.56 -0.809,1.815 -2.42,5.48 -3.229,7.293 l -0.009,0.023 -28.274,-42.878 z"
           style="fill:#dcf07c;fill-opacity:1;fill-rule:nonzero;stroke:none"
           id="path5164" /><path
           d="m 572.277,275.586 c 0.117,-2.977 -0.687,-5.801 -2.416,-8.47 l -0.804,-2.822 c -0.639,-1.981 -1.849,-5.88 -2.487,-7.828 l -0.74,-2.79 c 0,-1.376 -0.068,-4.133 -0.068,-5.545 -0.571,-1.039 -1.711,-3.192 -2.283,-4.232 v -2.721 c 0.033,-2.119 0.136,-6.32 0.167,-8.402 1.649,-0.672 4.907,-2.016 6.521,-2.688 l 2.62,-0.068 c 1.543,0.74 4.704,2.184 6.285,2.924 0.703,0.806 2.08,2.452 2.787,3.258 l 0.638,2.017 c 0.538,0.874 1.646,2.622 2.219,3.497 l 0.77,2.249 v 2.52 c -0.671,3.967 0.238,7.527 2.659,10.654 1.375,6.349 1.81,12.902 1.511,19.354 0.166,0.679 0.393,1.585 0.641,2.566 l -6.256,12.777 z"
           style="fill:#31bded;fill-opacity:1;fill-rule:nonzero;stroke:none"
           id="path5166" /><path
           d="m 503.404,148.659 c 0.422,0.63 0.825,1.236 1.102,1.658 l 0.908,2.117 c 0.639,0.874 1.917,2.653 2.552,3.527 0.572,1.008 1.718,2.99 2.286,3.999 l 1.143,2.184 c 0.572,1.11 1.679,3.327 2.251,4.436 l 1.143,2.452 c 0.807,1.815 2.455,5.445 3.295,7.258 0.703,1.917 2.081,5.747 2.754,7.661 0.401,1.412 1.176,4.269 1.578,5.681 0.472,1.948 1.48,5.912 1.983,7.862 0.269,2.185 0.806,6.587 1.077,8.771 -0.181,1.471 -0.246,2.942 -0.197,4.402 l -42.468,-58.664 z"
           style="fill:#31bded;fill-opacity:1;fill-rule:nonzero;stroke:none"
           id="path5168" /><path
           d="m 486.406,127.582 c 0.676,0.811 2.043,2.477 2.742,3.277 0.709,0.809 2.12,2.421 2.825,3.192 0.705,0.809 2.15,2.455 2.857,3.262 0.703,0.839 2.115,2.554 2.856,3.428 0.704,0.905 2.116,2.754 2.822,3.661 l 1.379,2.017 c 0.381,0.552 0.966,1.416 1.517,2.24 l -20.593,3.344 z"
           style="fill:#0181dd;fill-opacity:1;fill-rule:nonzero;stroke:none"
           id="path5170" /><path
           d="m 509.748,52.199 c 0.673,0.703 2.051,2.151 2.754,2.857 0.74,0.703 2.253,2.115 3.024,2.821 0.877,0.673 2.622,1.982 3.497,2.62 1.077,0.439 3.26,1.278 4.334,1.714 1.952,0.436 5.815,1.245 7.763,1.681 l 2.421,0.637 c 1.073,-0.099 3.258,-0.301 4.367,-0.401 1.141,0.233 3.426,0.737 4.569,0.974 0.771,0.805 2.252,2.418 2.992,3.192 l 0.604,2.185 c -1.817,2.619 -2.657,5.475 -2.554,8.602 -0.607,0.772 -1.814,2.352 -2.418,3.124 -0.671,0.672 -2.085,2.016 -2.756,2.688 -0.874,0.603 -2.589,1.848 -3.429,2.486 l -2.115,1.177 c -1.781,0.773 -5.346,2.252 -7.125,3.023 l -2.756,0.84 c -4.232,-0.47 -8.098,0.47 -11.594,2.791 -5.047,0.806 -14.589,2.304 -20.633,3.263 l 7.96,-54.051 1.921,0.385 c 0.908,0.401 2.725,1.242 3.629,1.679 l 1.379,1.479 c 0.74,0.639 2.217,1.914 2.99,2.585 z"
           style="fill:#0181dd;fill-opacity:1;fill-rule:nonzero;stroke:none"
           id="path5172" /><path
           d="m 393.818,739.692 c -1.292,0.45 -2.555,0.887 -3.422,1.182 l -2.792,0.808 c -1.981,0.603 -5.945,1.746 -7.93,2.317 l -2.956,0.605 -3.058,0.369 c -6.618,-0.167 -13.239,-0.302 -19.825,-0.571 -1.513,-0.369 -4.537,-1.141 -6.049,-1.545 v -0.002 c -1.242,-0.436 -3.762,-1.343 -5.006,-1.813 l -2.42,-0.941 c -0.223,-0.138 -0.499,-0.309 -0.803,-0.496 l 43.598,-3.456 z"
           style="fill:#e65100;fill-opacity:1;fill-rule:nonzero;stroke:none"
           id="path5174" /><path
           d="m 571.85,283.525 c 0.007,-1.587 0.029,-3.782 0.029,-5.015 0.228,-0.991 0.36,-1.965 0.398,-2.924 l 11.764,16.25 z"
           style="fill:#8bebdb;fill-opacity:1;fill-rule:nonzero;stroke:none"
           id="path5176" /><path
           d="m 482.811,152.003 42.468,58.664 c 0.117,3.44 0.873,6.817 2.313,9.979 1.764,11.265 2.192,22.661 2.015,34.084 l -59.402,-40.492 z"
           style="fill:#8bebdb;fill-opacity:1;fill-rule:nonzero;stroke:none"
           id="path5178" /><path
           d="m 584.041,291.836 9.242,7.484 c 0.349,11.856 -1.126,23.849 -1.983,35.538 -1.445,5.847 -2.251,11.864 -1.88,17.878 l -0.034,2.922 c -0.232,1.731 -0.642,4.787 -0.958,7.133 l -44.565,14.126 z"
           style="fill:#b7f3bb;fill-opacity:1;fill-rule:nonzero;stroke:none"
           id="path5180" /><path
           d="m 264.05,44.437 c 1.008,-0.47 2.99,-1.448 3.965,-1.917 1.243,-0.1 3.73,-0.336 4.973,-0.47 l 2.452,0.405 c 1.077,0.367 3.293,1.073 4.368,1.443 0.044,0.021 0.09,0.043 0.138,0.065 l -19.19,2.701 c 0.849,-0.576 2.464,-1.695 3.294,-2.227"
           style="fill:#b16559;fill-opacity:1;fill-rule:nonzero;stroke:none"
           id="path5182" /><path
           d="m 572.137,419.795 -1.065,2.464 c -0.504,1.141 -1.546,3.394 -2.081,4.536 l -1.076,2.284 c -0.538,1.109 -1.612,3.294 -2.116,4.368 l -1.145,2.252 c -0.536,1.109 -1.679,3.261 -2.216,4.334 l -1.176,2.253 c -0.573,1.073 -1.748,3.192 -2.321,4.266 l -1.175,2.184 c -0.604,1.008 -1.78,3.024 -2.352,4.033 -0.639,0.908 -1.949,2.721 -2.59,3.629 l -0.871,2.219 c -0.603,1.008 -1.882,3.056 -2.488,4.064 l -1.344,2.153 c -0.636,1.008 -1.979,3.056 -2.621,4.063 -0.671,1.008 -2.016,3.058 -2.654,4.067 l -1.377,2.152 c -0.623,0.936 -1.852,2.738 -2.564,3.798 l 4.958,-101.997 z"
           style="fill:#f2da4a;fill-opacity:1;fill-rule:nonzero;stroke:none"
           id="path5184" /><path
           d="m 449.444,596.138 c -0.245,0.348 -0.469,0.667 -0.649,0.918 -0.641,0.877 -1.916,2.622 -2.588,3.528 l -0.873,2.118 c -0.571,1.042 -1.647,3.09 -2.184,4.098 l -1.076,2.221 c -0.603,0.971 -1.779,2.988 -2.351,3.964 l -0.504,2.588 -0.978,2.62 c -0.671,2.016 -2.015,6.08 -2.687,8.096 0.472,11.798 0.403,23.69 0.236,35.385 0.808,1.95 2.386,5.847 3.16,7.794 l 1.41,2.321 c 0.672,0.974 2.017,2.955 2.689,3.931 0.705,0.84 2.082,2.587 2.79,3.462 0.704,0.839 2.082,2.519 2.788,3.36 0.703,0.872 2.115,2.586 2.822,3.459 l 1.176,1.949 c 0.774,0.808 2.286,2.419 3.059,3.193 0.74,0.874 2.283,2.586 3.054,3.426 l 0.709,2.219 0.536,2.185 2.285,0.637 2.32,0.808 c 0.939,0.806 2.756,2.418 3.696,3.259 1.008,0.739 2.989,2.285 3.997,3.057 l 2.152,1.513 c 1.007,0.705 3.057,2.116 4.099,2.822 0.909,0.706 2.757,2.118 3.697,2.822 l 2.215,0.941 c 1.046,0.64 3.062,1.915 4.07,2.555 l 2.082,1.277 c 0.904,0.638 2.79,1.915 3.695,2.553 0.775,0.706 2.287,2.117 3.059,2.823 l 1.712,1.107 c 0.876,0.505 2.556,1.48 3.428,1.984 0.137,2.083 0.405,6.217 0.573,8.3 l -2.452,1.141 c -1.345,0.102 -3.968,0.304 -5.277,0.405 -1.076,-0.471 -3.227,-1.378 -4.301,-1.848 -3.863,-0.236 -7.697,-0.27 -11.527,-0.068 -2.207,-0.018 -4.416,-0.07 -6.623,-0.157 l -82.244,-119.68 z"
           style="fill:#fb6100;fill-opacity:1;fill-rule:nonzero;stroke:none"
           id="path5186" /><path
           d="M 543.863,376.917 422.544,337.134 526.865,307.873 c -0.4,5.194 -0.877,11.387 -1.156,15.057 l -0.134,2.924 c -0.335,5.041 -0.907,10.047 -1.747,15.019 -1.445,6.957 -0.572,13.811 2.656,20.497 0.57,0.874 1.745,2.589 2.316,3.463 0.908,0.538 2.688,1.612 3.596,2.149 3.058,3.093 5.208,2.555 6.552,-1.611 0.773,-0.672 2.322,-2.017 3.093,-2.688 l 1.107,-1.817 c 0.573,-0.871 1.748,-2.688 2.321,-3.559 l 1.209,-1.883 c 0.571,-0.908 1.748,-2.722 2.319,-3.63 0.605,-0.872 1.812,-2.654 2.418,-3.528 l 0.841,-2.185 c 0.605,-1.073 1.813,-3.258 2.418,-4.334 l 1.312,-2.452 c 0.638,-1.95 1.916,-5.846 2.52,-7.797 0.74,-0.806 2.15,-2.418 2.855,-3.191 l 0.605,-2.586 0.84,-2.657 c 0.673,-1.948 2.016,-5.88 2.657,-7.829 l 0.871,-2.855 c 2.451,-3.326 3.461,-7.057 3.024,-11.189 l 0.605,-2.89 c 0.748,-0.969 1.336,-1.974 1.77,-3.013 l 12.308,-3.452 z"
           style="fill:#d8f890;fill-opacity:1;fill-rule:nonzero;stroke:none"
           id="path5188" /><path
           d="m 571.733,295.288 c 1.029,-2.458 1.181,-5.108 0.451,-7.942 l -0.337,-2.857 c 0,-0.277 10e-4,-0.605 0.003,-0.964 l 12.191,8.311 z"
           style="fill:#c5f5c1;fill-opacity:1;fill-rule:nonzero;stroke:none"
           id="path5190" /><path
           d="m 470.205,214.238 59.402,40.492 c -0.244,15.769 -1.64,31.591 -2.283,47.199 -0.123,1.593 -0.283,3.675 -0.459,5.944 l -104.321,29.261 z"
           style="fill:#c5f5c1;fill-opacity:1;fill-rule:nonzero;stroke:none"
           id="path5192" /><path
           d="m 390.639,615.224 82.244,119.68 c -6.492,-0.256 -12.975,-0.814 -19.418,-1.692 -5.106,0 -15.323,0.034 -20.432,0.069 -5.377,0.403 -16.16,1.242 -21.537,1.646 -4.031,-0.874 -7.66,-0.034 -10.889,2.519 l -2.72,0.841 c -1.013,0.343 -2.561,0.882 -4.069,1.405 l -10.663,-3.543 z"
           style="fill:#f55a00;fill-opacity:1;fill-rule:nonzero;stroke:none"
           id="path5194" /><path
           d="m 488.613,98.804 -2.924,-0.034 -2.756,-0.1 -0.033,2.318 -0.168,2.386 c 0.135,4.468 0.405,13.44 0.537,17.943 l 0.908,2.318 c 0.538,0.976 1.648,2.959 2.218,3.933 0.003,0.004 0.008,0.009 0.011,0.014 l -3.595,24.421 -40.696,-53.073 c 0.067,-1.201 0.137,-2.471 0.196,-3.284 l 0.503,-2.823 c 0.235,-1.981 0.704,-5.948 0.94,-7.93 -0.336,-2.016 -1.008,-6.048 -1.344,-8.065 -0.305,-1.107 -0.908,-3.326 -1.209,-4.468 -0.439,-1.007 -1.379,-3.024 -1.814,-4.066 l -0.909,-2.118 c -0.404,-1.109 -1.276,-3.292 -1.68,-4.369 -0.368,-1.242 -1.076,-3.727 -1.444,-4.972 0.872,-3.395 0.638,-6.755 -0.707,-10.046 l 1.143,-2.085 1.917,-1.141 c 0.534,-0.773 1.58,-2.285 2.083,-3.059 l 2.651,0.672 c 1.28,0.236 3.799,0.74 5.079,1.008 1.007,0.47 3.023,1.478 4.031,1.951 0.872,0.535 2.652,1.578 3.528,2.115 0.905,0.539 2.689,1.547 3.595,2.085 1.008,0.436 3.057,1.31 4.065,1.745 l 2.319,0.806 c 2.184,4.235 4.77,4.437 7.728,0.673 l 2.754,-0.303 c 1.344,-0.167 4.032,-0.537 5.376,-0.706 1.008,-0.57 3.023,-1.68 4.033,-2.249 0.977,-0.439 2.893,-1.378 3.864,-1.815 0.976,-0.37 2.856,-1.144 3.798,-1.511 l 2.051,-0.069 c 0.974,-0.134 2.924,-0.37 3.896,-0.504 l 0.095,0.02 -7.96,54.051 c -0.752,0.119 -1.452,0.23 -2.08,0.331"
           style="fill:#6cb0c4;fill-opacity:1;fill-rule:nonzero;stroke:none"
           id="path5196" /><path
           d="m 422.544,337.134 112.069,148.282 c -0.701,1.048 -1.982,2.917 -2.621,3.845 -0.414,0.621 -1.069,1.624 -1.668,2.539 l -149.927,26.92 z"
           style="fill:#ffd100;fill-opacity:1;fill-rule:nonzero;stroke:none"
           id="path5198" /><path
           d="m 543.863,376.917 -4.958,101.997 c -0.054,0.082 -0.108,0.162 -0.156,0.234 -0.673,1.009 -2.017,3.025 -2.657,4.033 l -1.375,2.082 c -0.033,0.048 -0.069,0.1 -0.104,0.153 L 422.544,337.134 Z"
           style="fill:#f9ed2d;fill-opacity:1;fill-rule:nonzero;stroke:none"
           id="path5200" /><path
           d="m 530.324,491.8 c -0.374,0.57 -0.726,1.106 -0.984,1.493 l -1.38,2.084 c -0.673,1.009 -2.017,2.99 -2.689,3.998 -0.671,1.009 -2.015,3.024 -2.689,4.033 l -1.375,2.081 c -0.672,1.008 -2.016,3.025 -2.723,4.032 -0.671,1.008 -2.015,3.025 -2.687,4.07 l -1.41,2.116 c -0.708,1.008 -2.084,3.024 -2.79,4.032 -0.673,1.008 -2.05,3.024 -2.754,4.032 l -1.447,2.116 c -0.706,0.976 -2.082,2.925 -2.791,3.898 -0.703,0.906 -2.082,2.791 -2.753,3.696 -0.738,0.874 -2.218,2.555 -2.921,3.395 l -1.146,2.048 c -0.703,0.908 -2.183,2.756 -2.924,3.665 -0.738,0.907 -2.215,2.72 -2.988,3.628 -0.74,0.908 -2.286,2.756 -3.023,3.664 -0.775,0.94 -2.321,2.856 -3.093,3.827 l -1.649,2.017 c -0.135,0.166 -0.303,0.369 -0.481,0.584 L 380.397,518.72 Z"
           style="fill:#fd9d00;fill-opacity:1;fill-rule:nonzero;stroke:none"
           id="path5202" /><path
           d="m 380.397,518.72 103.23,37.589 c -0.83,1.001 -2.012,2.407 -2.674,3.18 -0.808,0.908 -2.389,2.689 -3.16,3.563 -0.807,0.874 -2.384,2.586 -3.193,3.462 -0.805,0.84 -2.383,2.52 -3.192,3.36 -0.806,0.841 -2.421,2.521 -3.193,3.36 -0.805,0.84 -2.383,2.521 -3.192,3.361 -0.805,0.872 -2.351,2.586 -3.158,3.46 -0.773,0.872 -2.318,2.688 -3.09,3.559 -0.74,0.977 -2.252,2.857 -2.992,3.833 l -1.512,2.017 c -0.704,0.974 -2.15,2.887 -2.857,3.83 -0.467,0.69 -1.295,1.885 -1.97,2.844 l -58.805,19.086 z"
           style="fill:#ff9300;fill-opacity:1;fill-rule:nonzero;stroke:none"
           id="path5204" /><path
           d="m 470.205,214.238 -47.661,122.896 -12.21,-114.23 z"
           style="fill:#cbf387;fill-opacity:1;fill-rule:nonzero;stroke:none"
           id="path5206" /><path
           d="m 389.457,137.429 -0.329,-30.273 c 2.526,-0.227 5.772,-0.537 7.615,-0.689 5.816,-0.103 17.442,-0.305 23.253,-0.404 6.484,-0.604 12.77,-2.253 19.02,-4.034 l 2.959,-0.77 c 0.043,-0.599 0.09,-1.446 0.14,-2.329 l 40.696,53.073 z"
           style="fill:#8bcfa3;fill-opacity:1;fill-rule:nonzero;stroke:none"
           id="path5208" /><path
           d="m 410.334,222.904 72.477,-70.901 -12.606,62.235 z"
           style="fill:#96eaa2;fill-opacity:1;fill-rule:nonzero;stroke:none"
           id="path5210" /><path
           d="m 389.457,137.429 93.354,14.574 -72.477,70.901 z"
           style="fill:#9ae292;fill-opacity:1;fill-rule:nonzero;stroke:none"
           id="path5212" /><path
           d="M 380.397,518.72 289.408,374.554 422.544,337.134 Z"
           style="fill:#ffce00;fill-opacity:1;fill-rule:nonzero;stroke:none"
           id="path5214" /><path
           d="m 289.408,374.554 -37.814,-146.135 158.74,-5.515 z"
           style="fill:#f0d03c;fill-opacity:1;fill-rule:nonzero;stroke:none"
           id="path5216" /><path
           d="m 422.544,337.134 -133.136,37.42 120.926,-151.65 z"
           style="fill:#f6e63a;fill-opacity:1;fill-rule:nonzero;stroke:none"
           id="path5218" /><path
           d="M 383.155,736.149 298.68,634.544 c -0.071,-5.251 -0.192,-14.355 -0.255,-19.073 -0.753,-3.832 -1.338,-7.719 -1.645,-11.634 l 93.859,11.387 z"
           style="fill:#fb6800;fill-opacity:1;fill-rule:nonzero;stroke:none"
           id="path5220" /><path
           d="m 251.594,228.419 137.863,-90.99 20.877,85.475 z"
           style="fill:#c7df6f;fill-opacity:1;fill-rule:nonzero;stroke:none"
           id="path5222" /><path
           d="M 380.397,518.72 232.276,481.067 c -0.695,-0.98 -1.522,-2.133 -2.031,-2.827 l -1.04,-2.219 c -0.706,-0.874 -2.152,-2.687 -2.891,-3.595 -0.672,-0.975 -1.981,-2.888 -2.654,-3.864 l -0.59,-1.279 66.338,-92.729 z"
           style="fill:#feb200;fill-opacity:1;fill-rule:nonzero;stroke:none"
           id="path5224" /><path
           d="m 339.557,739.605 c -1.026,-0.63 -2.377,-1.457 -3.13,-1.923 l -2.283,-0.606 c -1.04,-0.604 -3.094,-1.813 -4.101,-2.419 l -2.116,-1.276 c -0.974,-0.639 -2.956,-1.983 -3.964,-2.621 -0.977,-0.705 -2.924,-2.084 -3.864,-2.756 l -2.016,-1.479 c -0.909,-0.772 -2.723,-2.252 -3.63,-3.023 -0.806,-0.773 -2.453,-2.353 -3.293,-3.125 -0.74,-0.841 -2.251,-2.487 -2.991,-3.328 -0.671,-0.906 -2.015,-2.688 -2.655,-3.595 l -1.007,-2.016 c -0.739,-0.705 -2.218,-2.118 -2.957,-2.822 -0.034,-1.479 -0.101,-4.403 -0.168,-5.881 -0.672,-1.175 -2.05,-3.495 -2.722,-4.637 -0.336,-1.546 -0.973,-4.603 -1.31,-6.15 l -0.269,-3.158 c -0.135,-5.88 -0.403,-17.673 -0.504,-23.554 l 0.067,-3.26 c 0.302,-8.805 1.008,-17.607 2.05,-26.413 -0.004,-0.319 -0.009,-0.661 -0.014,-1.019 l 84.475,101.605 z"
           style="fill:#f35c00;fill-opacity:1;fill-rule:nonzero;stroke:none"
           id="path5226" /><path
           d="m 358.339,116.805 1.88,-0.291 c 1.042,-0.539 3.058,-1.648 4.098,-2.185 l 2.52,-0.909 c 1.951,-0.637 5.849,-1.982 7.766,-2.653 l 2.855,-0.84 c 1.444,0.034 4.332,0.134 5.779,0.168 l 2.754,0.099 1.044,-2.856 c 0.583,-0.047 1.304,-0.11 2.093,-0.182 l 0.329,30.273 z"
           style="fill:#b5b995;fill-opacity:1;fill-rule:nonzero;stroke:none"
           id="path5228" /><path
           d="m 257.7,49.106 c 0.771,-0.603 2.283,-1.813 3.024,-2.42 0.009,-0.006 0.022,-0.016 0.032,-0.022 l 19.19,-2.701 c 1.044,0.488 2.93,1.399 3.895,1.851 l 2.05,1.075 c 0.974,0.537 2.923,1.645 3.899,2.183 1.041,0.504 3.124,1.448 4.166,1.95 l 2.318,0.907 c 4.368,3.024 9.913,2.99 14.416,0.27 1.04,-0.337 3.125,-1.008 4.165,-1.344 l 2.083,-0.572 c 1.008,-0.168 3.024,-0.47 4.069,-0.603 1.008,0.099 3.024,0.366 4.032,0.503 0.803,0.504 2.384,1.544 3.192,2.082 0.368,0.839 1.139,2.588 1.544,3.462 0,1.04 0,3.09 0.034,4.132 -0.336,0.909 -1.042,2.788 -1.378,3.731 l -0.47,2.015 c -0.57,0.875 -1.68,2.655 -2.25,3.529 -0.672,0.84 -1.985,2.52 -2.657,3.36 -0.703,0.807 -2.15,2.452 -2.856,3.292 -0.74,0.806 -2.216,2.455 -2.99,3.295 -0.737,0.84 -2.218,2.521 -2.958,3.36 -0.654,0.842 -1.913,2.433 -2.655,3.381 L 257.047,49.669 c 0.247,-0.213 0.473,-0.407 0.653,-0.563"
           style="fill:#b5b995;fill-opacity:1;fill-rule:nonzero;stroke:none"
           id="path5230" /><path
           d="m 249.533,142.696 0.572,-2.191 c 0.571,-0.975 1.68,-2.956 2.251,-3.934 l 0.605,-2.317 c 0.571,-1.008 1.714,-3.059 2.286,-4.066 l 0.503,-2.62 0.941,-2.689 c 2.319,-3.562 2.924,-7.392 1.713,-11.459 -0.335,-2.184 -1.074,-6.486 -1.445,-8.67 -0.469,-1.108 -1.411,-3.36 -1.848,-4.469 -0.771,-0.805 -2.284,-2.452 -3.024,-3.292 l -2.284,-1.107 c -1.782,-0.672 -5.344,-2.017 -7.125,-2.689 -0.731,-0.701 -2.091,-2.089 -2.89,-2.889 l 12.074,-36.372 c 0.887,-0.708 2.145,-1.71 2.846,-2.272 0.585,-0.482 1.572,-1.33 2.339,-1.991 l 54.548,36.153 c -0.056,0.073 -0.116,0.149 -0.166,0.213 -0.638,0.974 -1.915,2.958 -2.554,3.933 -0.436,1.176 -1.276,3.494 -1.713,4.67 -0.269,1.378 -0.808,4.1 -1.109,5.444 l -2.689,0.234 c 0.673,0.774 2.051,2.318 2.723,3.092 l 0.637,2.185 0.539,2.115 c 0.504,0.908 1.477,2.688 1.982,3.563 0.706,0.772 2.083,2.284 2.755,3.024 l 1.815,1.244 c 0.908,0.604 2.687,1.848 3.561,2.452 l 2.318,0.772 2.387,1.008 c 1.175,0.404 3.562,1.144 4.738,1.546 5.342,-0.469 16.061,-1.379 21.406,-1.848 l 2.856,-0.336 2.651,-0.234 c 1.008,-0.503 3.061,-1.512 4.101,-2.015 l 0.506,-0.079 31.118,20.624 z"
           style="fill:#c2b266;fill-opacity:1;fill-rule:nonzero;stroke:none"
           id="path5232" /><path
           d="m 251.594,228.419 -18.056,-51.759 0.067,-0.503 0.942,-2.421 c 0.504,-1.142 1.479,-3.425 1.949,-4.57 l 1.008,-2.318 c 0.571,-1.008 1.715,-3.025 2.286,-4.032 l 0.57,-2.353 c 0.605,-0.974 1.848,-2.989 2.486,-3.997 l 0.707,-2.521 c 0.84,-1.749 2.587,-5.307 3.461,-7.056 0.605,-1.008 1.848,-3.059 2.486,-4.067 l 0.033,-0.126 139.924,-5.267 z"
           style="fill:#d3bf53;fill-opacity:1;fill-rule:nonzero;stroke:none"
           id="path5234" /><path
           d="M 390.639,615.224 296.78,603.837 c -0.173,-2.196 -0.261,-4.402 -0.237,-6.613 -0.571,-1.983 -1.781,-5.881 -2.352,-7.863 l -0.774,-2.822 c -0.228,-0.621 -0.524,-1.448 -0.842,-2.347 l 87.822,-65.472 z"
           style="fill:#ff8500;fill-opacity:1;fill-rule:nonzero;stroke:none"
           id="path5236" /><path
           d="m 292.575,584.192 c -0.663,-1.871 -1.424,-4.054 -1.878,-5.347 l -0.941,-2.757 c -0.774,-1.779 -2.318,-5.41 -3.092,-7.225 l -0.503,-2.519 c -0.572,-0.975 -1.748,-2.956 -2.353,-3.93 l -1.007,-2.287 c -0.539,-1.107 -1.58,-3.326 -2.118,-4.434 l -1.109,-2.352 c -0.571,-1.111 -1.713,-3.361 -2.286,-4.471 l -1.176,-2.351 c -0.604,-1.142 -1.814,-3.395 -2.419,-4.502 l -1.277,-2.285 c -0.603,-1.076 -1.814,-3.226 -2.451,-4.268 l -0.942,-2.253 c -0.672,-0.905 -1.983,-2.719 -2.655,-3.628 -0.638,-0.974 -1.915,-2.888 -2.553,-3.864 l -1.008,-2.116 c -0.706,-0.908 -2.117,-2.657 -2.824,-3.562 -0.672,-0.942 -2.048,-2.856 -2.721,-3.83 -0.706,-1.009 -2.151,-2.993 -2.856,-4.001 l -1.479,-2.116 c -0.739,-1.008 -2.151,-3.056 -2.888,-4.064 -0.707,-0.976 -2.118,-2.925 -2.825,-3.932 l -1.074,-2.153 c -0.74,-0.906 -2.217,-2.651 -2.957,-3.528 -0.705,-0.972 -2.084,-2.922 -2.788,-3.896 -0.741,-1.008 -2.185,-3.024 -2.925,-4.032 l -1.478,-2.153 c -0.739,-1.008 -2.184,-3.056 -2.89,-4.098 -0.22,-0.314 -0.51,-0.725 -0.826,-1.171 l 148.121,37.653 z"
           style="fill:#fe9400;fill-opacity:1;fill-rule:nonzero;stroke:none"
           id="path5238" /><path
           d="m 289.408,374.554 -43.933,0.241 0.934,-1.259 2.217,-0.741 -0.167,-2.485 -0.135,-2.587 c 0.067,-1.38 0.235,-4.1 0.302,-5.479 -0.335,-1.981 -1.042,-5.914 -1.377,-7.896 l -0.605,-2.79 c -0.067,-1.376 -0.201,-4.164 -0.269,-5.545 -0.604,-1.039 -1.849,-3.156 -2.452,-4.2 l -0.673,-2.652 c -0.604,-1.885 -1.815,-5.681 -2.386,-7.597 l -0.874,-2.753 c -0.604,-1.952 -1.78,-5.815 -2.385,-7.763 -0.336,-1.444 -1.042,-4.3 -1.378,-5.712 -0.571,-1.914 -1.747,-5.778 -2.318,-7.695 l -0.773,-2.754 c -0.606,-1.885 -1.782,-5.681 -2.352,-7.56 -0.336,-1.413 -0.974,-4.235 -1.277,-5.613 -0.571,-1.916 -1.748,-5.681 -2.319,-7.561 l -0.773,-2.721 c -0.605,-1.883 -1.848,-5.645 -2.453,-7.493 l -0.638,-2.822 c 0.198,-1.27 0.246,-2.506 0.149,-3.705 l 28.121,-38.993 z"
           style="fill:#fb9b00;fill-opacity:1;fill-rule:nonzero;stroke:none"
           id="path5240" /><path
           d="m 176.853,368.125 -0.841,-2.754 c -0.605,-1.916 -1.781,-5.78 -2.386,-7.697 -0.336,-1.412 -1.008,-4.269 -1.31,-5.712 -0.605,-1.948 -1.781,-5.813 -2.386,-7.729 l -0.516,-1.862 19.156,-26.563 c 0.014,0.021 0.03,0.045 0.043,0.065 l 1.378,2.219 c 0.673,1.039 1.982,3.124 2.62,4.166 l 0.942,2.287 c 0.705,0.905 2.117,2.754 2.788,3.695 0.672,1.009 2.016,3.057 2.689,4.065 l 1.378,2.152 c 0.705,1.04 2.049,3.056 2.755,4.098 0.705,0.973 2.083,2.922 2.789,3.898 l 1.075,2.116 c 0.739,0.84 2.184,2.589 2.924,3.428 0.706,0.909 2.116,2.721 2.821,3.629 0.707,0.908 2.185,2.722 2.891,3.63 0.773,0.906 2.251,2.754 3.024,3.662 l 1.546,1.917 c 0.772,0.872 2.284,2.62 3.024,3.491 0.806,0.809 2.352,2.389 3.125,3.161 0.84,0.706 2.487,2.084 3.326,2.788 l 1.748,1.344 c 0.839,0.641 2.52,1.882 3.36,2.521 0.3,0.189 0.7,0.439 1.128,0.707 l -56.684,0.31 c -0.68,-1.995 -1.824,-5.311 -2.407,-7.032"
           style="fill:#fb9b00;fill-opacity:1;fill-rule:nonzero;stroke:none"
           id="path5242" /><path
           d="m 223.07,467.283 -0.418,-0.906 c -0.672,-0.871 -2.05,-2.688 -2.755,-3.56 -0.639,-0.976 -1.916,-2.924 -2.554,-3.901 l -0.907,-2.147 c -0.672,-0.908 -2.017,-2.756 -2.688,-3.665 -0.605,-1.008 -1.816,-3.092 -2.454,-4.1 l -1.242,-2.25 c -0.606,-1.11 -1.816,-3.295 -2.42,-4.402 l -1.244,-2.319 c -0.571,-1.141 -1.747,-3.393 -2.318,-4.502 l -1.142,-2.351 c -0.572,-1.146 -1.68,-3.43 -2.252,-4.572 l -1.108,-2.385 c -0.538,-1.176 -1.613,-3.494 -2.151,-4.67 l -1.11,-2.521 c -0.806,-1.782 -2.385,-5.343 -3.192,-7.122 l -0.469,-2.489 c -0.572,-0.974 -1.715,-2.924 -2.286,-3.896 l -0.907,-2.286 c -0.47,-1.141 -1.411,-3.394 -1.882,-4.502 l -0.974,-2.489 c -0.672,-1.848 -2.05,-5.575 -2.722,-7.424 l -0.94,-2.756 c -0.64,-1.88 -1.983,-5.713 -2.622,-7.629 l -0.874,-2.753 c -0.054,-0.162 -0.115,-0.341 -0.179,-0.529 l 56.684,-0.31 c 0.866,0.542 1.86,1.162 2.467,1.545 2.789,3.662 4.973,3.326 6.552,-0.909 l 0.512,-0.688 43.933,-0.241 z"
           style="fill:#ffa300;fill-opacity:1;fill-rule:nonzero;stroke:none"
           id="path5244" /><path
           d="m 223.473,267.412 c -0.219,-2.675 -1.167,-5.178 -2.837,-7.52 -0.234,-1.543 -0.672,-4.704 -0.874,-6.248 0.135,-4.303 0.067,-8.605 -0.134,-12.937 v -6.486 c 0.065,-1.387 0.11,-2.779 0.145,-4.172 l 31.821,-1.63 z"
           style="fill:#f56500;fill-opacity:1;fill-rule:nonzero;stroke:none"
           id="path5246" /><path
           d="m 169.158,341.445 c -0.639,-1.947 -1.848,-5.78 -2.487,-7.697 l -0.705,-2.754 c -0.069,-1.378 -0.237,-4.135 -0.304,-5.478 -0.638,-1.039 -1.848,-3.124 -2.486,-4.163 l -0.571,-2.624 c -0.538,-1.913 -1.58,-5.711 -2.084,-7.625 -0.336,-1.413 -0.974,-4.238 -1.31,-5.647 1.008,-3.799 0.539,-7.458 -1.344,-10.955 -0.403,-1.412 -1.176,-4.166 -1.546,-5.544 2.016,-0.639 6.048,-1.88 8.064,-2.52 0.606,0.671 1.816,2.05 2.421,2.722 l 1.78,0.974 c 0.807,0.672 2.42,1.984 3.192,2.656 0.773,0.804 2.252,2.418 2.991,3.192 l 1.445,1.88 c 0.705,0.94 2.116,2.788 2.788,3.731 0.706,0.973 2.084,2.958 2.79,3.929 l 1.411,2.119 c 0.672,1.008 2.015,3.058 2.722,4.097 0.658,1.025 1.961,3.01 2.645,4.07 l -19.156,26.563 z"
           style="fill:#f56500;fill-opacity:1;fill-rule:nonzero;stroke:none"
           id="path5248" /><path
           d="m 239.654,90.169 -2.419,-0.773 c -1.814,-0.775 -5.443,-2.319 -7.225,-3.091 l -2.452,-1.11 c -1.109,-0.57 -3.293,-1.746 -4.369,-2.318 l -2.083,-1.245 c -0.873,-0.535 -2.688,-1.611 -3.595,-2.15 l -2.184,-0.401 c -0.168,-4.94 -0.673,-9.913 -1.075,-14.888 l -0.169,-3.024 c 1.614,-0.233 4.874,-0.706 6.486,-0.94 8.636,-2.016 17.372,-3.428 26.243,-4.2 1.143,-0.438 3.427,-1.309 4.57,-1.715 0.139,-0.11 0.305,-0.243 0.48,-0.382 l -12.074,36.372 c -0.044,-0.044 -0.094,-0.094 -0.134,-0.135"
           style="fill:#bc5024;fill-opacity:1;fill-rule:nonzero;stroke:none"
           id="path5250" /><path
           d="m 219.773,230.049 c 0.073,-2.929 0.081,-5.871 -0.011,-8.831 0.235,-1.546 0.739,-4.704 0.975,-6.284 0.571,-2.051 1.747,-6.118 2.352,-8.165 l 0.908,-2.856 c 0.671,-1.951 2.016,-5.915 2.688,-7.865 l 0.94,-2.822 c 0.638,-1.914 1.949,-5.812 2.588,-7.729 l 0.872,-2.586 c 0.539,-1.076 1.648,-3.16 2.185,-4.233 l 0.268,-2.018 18.056,51.759 z"
           style="fill:#e07000;fill-opacity:1;fill-rule:nonzero;stroke:none"
           id="path5252" /></g></g></g></svg>
